<svg width="21" height="30" viewBox="0 0 21 30" fill="none" xmlns="http://www.w3.org/2000/svg">
<path d="M3.02344 3.09375C5.08594 1.03125 7.57031 0 10.4766 0C13.3828 0 15.8438 1.03125 17.8594 3.09375C19.9219 5.10938 20.9531 7.57031 20.9531 10.4766C20.9531 13.9922 19.4531 16.8516 16.4531 19.0547V22.5C16.4531 22.9219 16.3125 23.2734 16.0312 23.5547C15.75 23.8359 15.3984 23.9766 14.9766 23.9766H5.97656C5.55469 23.9766 5.20312 23.8359 4.92188 23.5547C4.64062 23.2734 4.5 22.9219 4.5 22.5V19.0547C1.5 16.9922 0 14.1328 0 10.4766C0 7.57031 1.00781 5.10938 3.02344 3.09375ZM5.97656 28.4766V27H14.9766V28.4766C14.9766 28.8984 14.8359 29.25 14.5547 29.5312C14.2734 29.8125 13.9219 29.9531 13.5 29.9531H7.45312C7.03125 29.9531 6.67969 29.8125 6.39844 29.5312C6.11719 29.25 5.97656 28.8984 5.97656 28.4766Z" fill="#13EC5B"/>
</svg>
