<svg width="21" height="19" viewBox="0 0 21 19" fill="none" xmlns="http://www.w3.org/2000/svg">
<path d="M14.625 7.5C14.8125 7.3125 14.9062 7.07812 14.9062 6.79688C14.9062 6.51562 14.8125 6.28125 14.625 6.09375L9.46875 0.984375C9.09375 0.578125 8.64062 0.3125 8.10938 0.1875C7.60938 0.0625 7.09375 0.0625 6.5625 0.1875C6.0625 0.3125 5.625 0.578125 5.25 0.984375L0.984375 5.20312C0.609375 5.60938 0.34375 6.0625 0.1875 6.5625C0.0625 7.0625 0.0625 7.57812 0.1875 8.10938C0.34375 8.60938 0.609375 9.0625 0.984375 9.46875L1.64062 10.0781L8.71875 3.04688L13.1719 7.5C13.3594 7.6875 13.5938 7.78125 13.875 7.78125C14.1562 7.78125 14.4062 7.6875 14.625 7.5ZM15.3281 5.39062L10.8281 0.890625C11.2344 0.546875 11.6875 0.3125 12.1875 0.1875C12.6875 0.0625 13.1875 0.078125 13.6875 0.234375C14.1875 0.359375 14.625 0.609375 15 0.984375L19.2656 5.20312C19.6406 5.60938 19.8906 6.0625 20.0156 6.5625C20.1719 7.0625 20.1719 7.57812 20.0156 8.10938C19.8906 8.60938 19.6406 9.0625 19.2656 9.46875L10.9219 17.8125C10.7344 18 10.5 18.0938 10.2188 18.0938C9.9375 18.0938 9.70312 18 9.51562 17.8125C9.32812 17.5938 9.23438 17.3594 9.23438 17.1094C9.23438 16.8281 9.32812 16.5938 9.51562 16.4062L14.1562 11.7656L13.4531 11.0625L8.8125 15.6562C8.625 15.875 8.39062 15.9844 8.10938 15.9844C7.82812 15.9844 7.59375 15.875 7.40625 15.6562C7.21875 15.4688 7.125 15.25 7.125 15C7.125 14.7188 7.21875 14.4688 7.40625 14.25L12.0469 9.65625L11.2969 8.95312L6.70312 13.5469C6.48438 13.7344 6.23438 13.8281 5.95312 13.8281C5.70312 13.8281 5.48438 13.7344 5.29688 13.5469C5.07812 13.3594 4.96875 13.125 4.96875 12.8438C4.96875 12.5625 5.07812 12.3281 5.29688 12.1406L9.89062 7.54688L9.1875 6.79688L4.54688 11.4375C4.35938 11.625 4.125 11.7188 3.84375 11.7188C3.5625 11.7188 3.32812 11.625 3.14062 11.4375C2.95312 11.25 2.85938 11.0156 2.85938 10.7344C2.85938 10.4531 2.95312 10.2188 3.14062 10.0312L8.71875 4.45312L12.4688 8.20312C12.5312 8.26562 12.6406 8.35938 12.7969 8.48438C12.9844 8.60938 13.2031 8.71875 13.4531 8.8125C13.7344 8.875 14.0312 8.875 14.3438 8.8125C14.6562 8.71875 14.9844 8.51562 15.3281 8.20312C15.7031 7.82812 15.8906 7.35938 15.8906 6.79688C15.8906 6.23438 15.7031 5.76562 15.3281 5.39062Z" fill="white"/>
</svg>
