<svg width="18" height="18" viewBox="0 0 24 24" fill="none" xmlns="http://www.w3.org/2000/svg">
<path d="M3 18V16C3 13.7909 4.79086 12 7 12H8C10.2091 12 12 13.7909 12 16V18H3Z" fill="#92C9B7"/>
<path d="M12 18V16C12 13.7909 13.7909 12 16 12H17C19.2091 12 21 13.7909 21 16V18H12Z" fill="#92C9B7"/>
<path d="M9 11C10.6569 11 12 9.65685 12 8C12 6.34315 10.6569 5 9 5C7.34315 5 6 6.34315 6 8C6 9.65685 7.34315 11 9 11Z" fill="#92C9B7"/>
<path d="M15 11C16.6569 11 18 9.65685 18 8C18 6.34315 16.6569 5 15 5C13.3431 5 12 6.34315 12 8C12 9.65685 13.3431 11 15 11Z" fill="#92C9B7"/>
<path d="M2 20H22V21C22 21.5523 21.5523 22 21 22H3C2.44772 22 2 21.5523 2 21V20Z" fill="#92C9B7"/>
</svg>
