<svg width="12" height="13" viewBox="0 0 12 13" fill="none" xmlns="http://www.w3.org/2000/svg">
<path d="M10.5 11.6758V4.10156H1.14844V11.6758H10.5ZM10.5 1.17578C10.8099 1.17578 11.0742 1.29427 11.293 1.53125C11.5299 1.76823 11.6484 2.04167 11.6484 2.35156V11.6758C11.6484 11.9857 11.5299 12.2591 11.293 12.4961C11.0742 12.7331 10.8099 12.8516 10.5 12.8516H1.14844C0.838542 12.8516 0.565104 12.7331 0.328125 12.4961C0.109375 12.2591 0 11.9857 0 11.6758V2.35156C0 2.04167 0.109375 1.76823 0.328125 1.53125C0.565104 1.29427 0.838542 1.17578 1.14844 1.17578H1.75V0H2.89844V1.17578H8.75V0H9.89844V1.17578H10.5Z" fill="#13EC5B"/>
</svg>
