<svg width="9" height="12" viewBox="0 0 9 12" fill="none" xmlns="http://www.w3.org/2000/svg">
<path d="M3.03516 5.11328C3.32682 5.38672 3.67318 5.52344 4.07422 5.52344C4.47526 5.52344 4.8125 5.38672 5.08594 5.11328C5.3776 4.82161 5.52344 4.47526 5.52344 4.07422C5.52344 3.67318 5.3776 3.33594 5.08594 3.0625C4.8125 2.77083 4.47526 2.625 4.07422 2.625C3.67318 2.625 3.32682 2.77083 3.03516 3.0625C2.76172 3.33594 2.625 3.67318 2.625 4.07422C2.625 4.47526 2.76172 4.82161 3.03516 5.11328ZM1.17578 1.20312C1.97786 0.401042 2.94401 0 4.07422 0C5.20443 0 6.16146 0.401042 6.94531 1.20312C7.7474 1.98698 8.14844 2.94401 8.14844 4.07422C8.14844 4.63932 8.0026 5.28646 7.71094 6.01562C7.4375 6.74479 7.10026 7.42839 6.69922 8.06641C6.29818 8.70443 5.89714 9.30599 5.49609 9.87109C5.11328 10.418 4.78516 10.8555 4.51172 11.1836L4.07422 11.6484C3.96484 11.5208 3.81901 11.3568 3.63672 11.1562C3.45443 10.9375 3.1263 10.5182 2.65234 9.89844C2.17839 9.26042 1.75911 8.64974 1.39453 8.06641C1.04818 7.46484 0.729167 6.79036 0.4375 6.04297C0.145833 5.29557 0 4.63932 0 4.07422C0 2.94401 0.391927 1.98698 1.17578 1.20312Z" fill="#13EC5B"/>
</svg>
