<svg width="21" height="21" viewBox="0 0 21 21" fill="none" xmlns="http://www.w3.org/2000/svg">
<path d="M6.51562 3.5625L4.03125 4.96875L5.4375 2.48438L4.03125 0L6.51562 1.40625L9 0L7.59375 2.48438L9 4.96875L6.51562 3.5625ZM18.5156 13.4062L21 12L19.5938 14.4844L21 16.9688L18.5156 15.5625L16.0312 16.9688L17.4375 14.4844L16.0312 12L18.5156 13.4062ZM21 0L19.5938 2.48438L21 4.96875L18.5156 3.5625L16.0312 4.96875L17.4375 2.48438L16.0312 0L18.5156 1.40625L21 0ZM13.4062 5.29688L15.7031 7.64062C15.9219 7.82812 16.0312 8.0625 16.0312 8.34375C16.0312 8.59375 15.9219 8.82812 15.7031 9.04688L4.07812 20.6719C3.85938 20.8906 3.60938 21 3.32812 21C3.07812 21 2.84375 20.8906 2.625 20.6719L0.328125 18.375C0.109375 18.1562 0 17.9219 0 17.6719C0 17.3906 0.109375 17.1406 0.328125 16.9219L11.9531 5.29688C12.1719 5.07812 12.4062 4.96875 12.6562 4.96875C12.9375 4.96875 13.1875 5.07812 13.4062 5.29688ZM12.375 10.7812L14.8125 8.34375L12.6562 6.1875L10.2188 8.625L12.375 10.7812Z" fill="#1F4E36"/>
</svg>
