<svg width="48" height="24" viewBox="0 0 48 24" fill="none" xmlns="http://www.w3.org/2000/svg">
<path opacity="0.5" d="M24 13.5C25.625 13.5 27.1562 13.6875 28.5938 14.0625C30.0312 14.375 31.3125 14.7812 32.4375 15.2812C33.5625 15.7812 34.4375 16.5312 35.0625 17.5312C35.6875 18.5312 36 19.5938 36 20.7188V24H12V20.8125C12 19.625 12.3125 18.5312 12.9375 17.5312C13.5625 16.5312 14.4375 15.7812 15.5625 15.2812C16.6875 14.7812 17.9688 14.375 19.4062 14.0625C20.8438 13.6875 22.375 13.5 24 13.5ZM7.96875 13.9688C9.09375 13.9688 10.0312 13.5938 10.7812 12.8438C11.5938 12.0312 12 11.0938 12 10.0312C12 8.90625 11.5938 7.96875 10.7812 7.21875C10.0312 6.40625 9.09375 6 7.96875 6C6.90625 6 5.96875 6.40625 5.15625 7.21875C4.40625 7.96875 4.03125 8.90625 4.03125 10.0312C4.03125 11.0938 4.40625 12.0312 5.15625 12.8438C5.96875 13.5938 6.90625 13.9688 7.96875 13.9688ZM10.2188 16.2188C9.90625 16.1562 9.5625 16.125 9.1875 16.125C8.8125 16.0625 8.40625 16.0312 7.96875 16.0312C6.96875 16.0312 6 16.125 5.0625 16.3125C4.1875 16.5 3.3125 16.7812 2.4375 17.1562C1.6875 17.4688 1.09375 17.9688 0.65625 18.6562C0.21875 19.3438 0 20.0938 0 20.9062V24H9V20.8125C9 19.1875 9.40625 17.6562 10.2188 16.2188ZM40.0312 13.9688C41.0938 13.9688 42 13.5938 42.75 12.8438C43.5625 12.0312 43.9688 11.0938 43.9688 10.0312C43.9688 8.90625 43.5625 7.96875 42.75 7.21875C42 6.40625 41.0938 6 40.0312 6C38.9062 6 37.9375 6.40625 37.125 7.21875C36.375 7.96875 36 8.90625 36 10.0312C36 11.0938 36.375 12.0312 37.125 12.8438C37.9375 13.5938 38.9062 13.9688 40.0312 13.9688ZM48 20.9062C48 20.0938 47.7812 19.3438 47.3438 18.6562C46.9062 17.9688 46.3125 17.4688 45.5625 17.1562C44.6875 16.7812 43.7812 16.5 42.8438 16.3125C41.9688 16.125 41.0312 16.0312 40.0312 16.0312C39.5938 16.0312 39.1875 16.0625 38.8125 16.125C38.4375 16.125 38.0938 16.1562 37.7812 16.2188C38.5938 17.6562 39 19.1875 39 20.8125V24H48V20.9062ZM24 0C25.125 0 26.125 0.28125 27 0.84375C27.9375 1.34375 28.6562 2.0625 29.1562 3C29.7188 3.875 30 4.875 30 6C30 7.125 29.7188 8.15625 29.1562 9.09375C28.6562 9.96875 27.9375 10.6875 27 11.25C26.125 11.75 25.125 12 24 12C22.875 12 21.8438 11.75 20.9062 11.25C20.0312 10.6875 19.3125 9.96875 18.75 9.09375C18.25 8.15625 18 7.125 18 6C18 4.875 18.25 3.875 18.75 3C19.3125 2.0625 20.0312 1.34375 20.9062 0.84375C21.8438 0.28125 22.875 0 24 0Z" fill="#13EC5B"/>
</svg>
