<svg width="12" height="10" viewBox="0 0 12 10" fill="none" xmlns="http://www.w3.org/2000/svg">
<path d="M10.5 2.35156V1.17578L5.82422 4.10156L1.14844 1.17578V2.35156L5.82422 5.25L10.5 2.35156ZM10.5 0C10.8099 0 11.0742 0.11849 11.293 0.355469C11.5299 0.592448 11.6484 0.865885 11.6484 1.17578V8.17578C11.6484 8.48568 11.5299 8.75911 11.293 8.99609C11.0742 9.23307 10.8099 9.35156 10.5 9.35156H1.14844C0.838542 9.35156 0.565104 9.23307 0.328125 8.99609C0.109375 8.75911 0 8.48568 0 8.17578V1.17578C0 0.865885 0.109375 0.592448 0.328125 0.355469C0.565104 0.11849 0.838542 0 1.14844 0H10.5Z" fill="#026924"/>
</svg>
